#!OML:ASF H:\ManfredETheater\Project 1\Capture day 1\Session 1\subject.ASF
:FULLY-SPECIFIED
:DEGREES
140
root -3.14714 12.609 33.186 -31.0842 75.6891 -33.5593
lowerback 41.4426 -0.0305705 3.89699
upperback 11.5064 3.89915 7.70775
thorax -7.36889 2.24285 4.57445
lowerneck 2.74187 -17.3476 -19.4309
upperneck -2.85805 -24.0143 21.5651
head 3.76808 -12.1586 7.98518
rclavicle -4.85035e-014 -2.38542e-014
rhumerus -13.3365 -18.7634 -49.1056
rradius 43.9867
rwrist -5.72782
rhand -24.0595 -9.11888
rfingers 7.12502
rthumb 2.41991 -39.0849
lclavicle -4.85035e-014 -2.38542e-014
lhumerus -50.5131 29.763 69.2176
lradius 57.2349
lwrist -0.92148
lhand -33.0742 0.657149
lfingers 7.12502
lthumb -6.28586 30.5439
rfemur -48.5988 -23.4802 4.41999
rtibia 81.9094
rfoot -14.7599 -10.0209
rtoes -19.5633
lfemur -69.0721 -1.51295 -2.94481
ltibia 93.8124
lfoot -26.164 -21.7519
ltoes 5.23859
141
root -3.12675 12.7149 33.3085 -28.8379 75.89 -31.5252
lowerback 41.1218 0.0217928 3.85786
upperback 11.3676 3.90574 7.69543
thorax -7.42949 2.23881 4.57972
lowerneck 2.9011 -17.4355 -19.3478
upperneck -3.31316 -24.0981 21.493
head 3.6036 -12.2163 7.97245
rclavicle 1.66979e-014 -2.62396e-014
rhumerus -14.3678 -19.0531 -50.2312
rradius 43.5554
rwrist -5.24928
rhand -24.1123 -9.33591
rfingers 7.12502
rthumb 2.36887 -39.3025
lclavicle 1.66979e-014 -2.62396e-014
lhumerus -50.1655 29.369 70.1012
lradius 56.8669
lwrist -1.49178
lhand -33.071 0.20162
lfingers 7.12502
lthumb -6.28279 30.0884
rfemur -48.5067 -23.4196 4.52426
rtibia 81.5717
rfoot -15.1097 -10.1584
rtoes -19.2753
lfemur -68.3095 -1.52134 -2.98362
ltibia 92.7356
lfoot -26.2159 -21.6148
ltoes 4.56106
142
root -3.104 12.8253 33.4228 -26.5254 76.0092 -29.4302
lowerback 40.7826 0.0644835 3.8508
upperback 11.2235 3.90851 7.66859
thorax -7.48497 2.23283 4.55492
lowerneck 3.05454 -17.5162 -19.2676
upperneck -3.74271 -24.1754 21.4315
head 3.44837 -12.2699 7.96391
rclavicle 1.74931e-014 3.02153e-014
rhumerus -15.4175 -19.3045 -51.2819
rradius 43.1471
rwrist -4.98727
rhand -24.2372 -9.62615
rfingers 7.12502
rthumb 2.24832 -39.594
lclavicle 1.74931e-014 3.02153e-014
lhumerus -49.8472 29.0051 70.8738
lradius 56.5554
lwrist -1.96239
lhand -32.9235 -0.30732
lfingers 7.12502
lthumb -6.1404 29.5837
rfemur -48.3795 -23.3221 4.64028
rtibia 81.1214
rfoot -15.3957 -10.2633
rtoes -18.9745
lfemur -67.5058 -1.50778 -3.03397
ltibia 91.6163
lfoot -26.2463 -21.4415
ltoes 3.90989
143
root -3.07935 12.9396 33.5296 -24.2115 76.0564 -27.3328
lowerback 40.436 0.0902046 3.87244
upperback 11.0723 3.89854 7.6281
thorax -7.54026 2.22062 4.50615
lowerneck 3.18548 -17.5907 -19.1798
upperneck -4.12904 -24.2455 21.364
head 3.30637 -12.3176 7.95108
rclavicle -3.18055e-015 1.59028e-014
rhumerus -16.4607 -19.5159 -52.2744
rradius 42.7502
rwrist -4.90282
rhand -24.3334 -9.98642
rfingers 7.12502
rthumb 2.15539 -39.9553
lclavicle -3.18055e-015 1.59028e-014
lhumerus -49.5775 28.6881 71.5198
lradius 56.3104
lwrist -2.3789
lhand -32.62 -0.861808
lfingers 7.12502
lthumb -5.84737 29.0375
rfemur -48.216 -23.194 4.76683
rtibia 80.57
rfoot -15.6183 -10.3457
rtoes -18.6457
lfemur -66.6611 -1.49344 -3.08779
ltibia 90.455
lfoot -26.264 -21.2199
ltoes 3.21997
144
root -3.05293 13.0565 33.6298 -21.9519 76.0436 -25.2838
lowerback 40.0896 0.0954926 3.91707
upperback 10.9138 3.87082 7.57764
thorax -7.59848 2.19977 4.44212
lowerneck 3.29388 -17.6541 -19.0993
upperneck -4.47396 -24.3026 21.3009
head 3.17925 -12.3566 7.93951
rclavicle -6.52014e-014 -3.81667e-014
rhumerus -17.482 -19.6533 -53.2279
rradius 42.3546
rwrist -5.06452
rhand -24.477 -10.331
rfingers 7.12502
rthumb 2.01668 -40.3012
lclavicle -6.52014e-014 -3.81667e-014
lhumerus -49.3675 28.419 72.0365
lradius 56.1376
lwrist -2.7861
lhand -32.1844 -1.46143
lfingers 7.12502
lthumb -5.42677 28.4491
rfemur -48.0179 -23.0604 4.90286
rtibia 79.9327
rfoot -15.78 -10.4
rtoes -18.2867
lfemur -65.7844 -1.48071 -3.14416
ltibia 89.2586
lfoot -26.266 -20.9617
ltoes 2.49256
145
root -3.02548 13.1755 33.7242 -19.7144 75.9864 -23.2494
lowerback 39.7454 0.0840322 3.95689
upperback 10.7485 3.81907 7.51714
thorax -7.66153 2.16715 4.37954
lowerneck 3.37388 -17.7029 -19.0358
upperneck -4.77555 -24.3419 21.2434
head 3.06893 -12.3842 7.93044
rclavicle -1.59028e-015 6.99722e-014
rhumerus -18.4697 -19.722 -54.1486
rradius 41.9658
rwrist -5.33953
rhand -24.5521 -10.7006
rfingers 7.12502
rthumb 1.9442 -40.6715
lclavicle -1.59028e-015 6.99722e-014
lhumerus -49.22 28.1963 72.428
lradius 56.038
lwrist -3.20656
lhand -31.6594 -2.05813
lfingers 7.12502
lthumb -4.91987 27.8647
rfemur -47.7887 -22.9243 5.02987
rtibia 79.2209
rfoot -15.8886 -10.4303
rtoes -17.8754
lfemur -64.8773 -1.47766 -3.21451
ltibia 88.0258
lfoot -26.2364 -20.6891
ltoes 1.8141
146
root -2.99702 13.2966 33.8134 -17.5553 75.8813 -21.2771
lowerback 39.4143 0.0552652 3.99573
upperback 10.5785 3.74581 7.44956
thorax -7.73086 2.12407 4.31835
lowerneck 3.41855 -17.738 -18.9864
upperneck -5.03274 -24.363 21.1859
head 2.97558 -12.3998 7.92098
rclavicle -1.27222e-014 7.95139e-015
rhumerus -19.421 -19.7227 -55.0419
rradius 41.5855
rwrist -5.66069
rhand -24.5558 -11.0607
rfingers 7.12502
rthumb 1.94053 -41.0316
lclavicle -1.27222e-014 7.95139e-015
lhumerus -49.1284 28.0012 72.715
lradius 56.0066
lwrist -3.65807
lhand -31.1438 -2.56559
lfingers 7.12502
lthumb -4.42202 27.3682
rfemur -47.5168 -22.7814 5.15461
rtibia 78.4393
rfoot -15.9529 -10.4413
rtoes -17.4272
lfemur -63.9304 -1.47758 -3.29178
ltibia 86.7582
lfoot -26.1899 -20.3968
ltoes 1.12626
